<?xml version="1.0" standalone="no"?>
<!DOCTYPE svg PUBLIC "-//W3C//DTD SVG 20010904//EN"
 "http://www.w3.org/TR/2001/REC-SVG-20010904/DTD/svg10.dtd">
<svg version="1.0" xmlns="http://www.w3.org/2000/svg"
 width="400.000000pt" height="400.000000pt" viewBox="0 0 400.000000 400.000000"
 preserveAspectRatio="xMidYMid meet">
<metadata>
Created by potrace 1.11, written by Peter Selinger 2001-2013
</metadata>
<g transform="translate(0.000000,400.000000) scale(0.100000,-0.100000)"
fill="#000000" stroke="none">
<path d="M1501 3369 c-38 -15 -73 -70 -156 -239 -73 -151 -72 -148 -69 -255 2
-55 6 -129 9 -165 4 -36 7 -74 7 -85 0 -11 7 -46 15 -79 8 -32 14 -86 13 -120
-1 -57 4 -118 10 -123 1 -2 3 -6 4 -10 1 -5 18 -42 37 -83 19 -41 41 -91 49
-110 8 -19 31 -58 52 -86 21 -28 38 -56 38 -62 0 -23 84 -115 136 -148 30 -19
54 -39 54 -44 0 -6 6 -10 14 -10 7 0 19 -7 26 -15 7 -8 21 -15 31 -15 11 0 19
-5 19 -11 0 -13 65 -41 115 -48 36 -5 40 -9 39 -33 0 -16 5 -28 12 -28 20 0
28 21 13 31 -9 6 -1 9 24 9 27 0 37 4 34 13 -2 6 -15 11 -28 10 -22 -2 -22 -1
-4 6 11 5 63 21 115 36 52 15 123 41 158 56 35 16 65 29 67 29 2 0 24 14 49
31 44 29 58 49 35 49 -5 0 -7 5 -3 11 5 8 9 8 14 -1 10 -17 30 -4 74 48 20 24
36 54 36 67 0 13 4 26 9 30 5 3 15 22 21 43 7 20 22 60 35 87 106 226 118 271
118 455 1 167 -17 405 -33 445 -7 17 -21 64 -32 105 -10 41 -22 79 -26 85 -4
5 -7 15 -7 20 -1 18 -25 90 -34 104 -13 21 -64 -8 -144 -79 -99 -89 -106 -97
-112 -127 -9 -42 -19 -56 -56 -81 -19 -13 -41 -38 -51 -55 -9 -18 -30 -42 -47
-55 -26 -19 -34 -20 -51 -10 -11 7 -20 16 -20 21 0 4 34 44 75 88 72 77 86
101 66 114 -12 7 -71 93 -71 103 -1 4 -20 21 -42 39 -47 35 -65 32 -95 -15
-10 -15 -31 -40 -48 -57 -16 -16 -30 -37 -30 -45 0 -8 -14 -19 -30 -25 -40
-13 -55 -24 -55 -38 0 -8 3 -8 12 1 18 18 28 15 28 -8 0 -13 -5 -18 -15 -14
-9 4 -15 0 -15 -10 0 -28 -17 -18 -102 62 -46 43 -90 83 -98 90 -17 13 -53 44
-99 85 -32 28 -51 32 -90 16z m29 -19 c0 -5 -5 -10 -11 -10 -5 0 -7 5 -4 10 3
6 8 10 11 10 2 0 4 -4 4 -10z m570 -45 c0 -8 -7 -15 -15 -15 -13 0 -14 3 -3
15 16 18 18 18 18 0z m-465 -15 c3 -5 -1 -10 -10 -10 -9 0 -13 5 -10 10 3 6 8
10 10 10 2 0 7 -4 10 -10z m865 -10 c0 -5 -4 -10 -10 -10 -5 0 -10 5 -10 10 0
6 5 10 10 10 6 0 10 -4 10 -10z m-798 -55 c0 -5 -5 -11 -11 -13 -6 -2 -11 4
-11 13 0 9 5 15 11 13 6 -2 11 -8 11 -13z m-132 -35 c0 -5 -4 -10 -10 -10 -5
0 -10 5 -10 10 0 6 5 10 10 10 6 0 10 -4 10 -10z m392 -137 c22 -21 47 -51 55
-68 9 -16 33 -47 54 -68 24 -24 36 -44 32 -54 -3 -8 -1 -18 4 -22 18 -11 85
-161 79 -176 -3 -8 -1 -15 5 -15 6 0 9 -6 6 -14 -3 -7 1 -26 9 -41 8 -15 14
-34 14 -41 0 -8 5 -14 11 -14 6 0 1 -9 -12 -20 -13 -10 -19 -19 -12 -20 9 0
13 -32 13 -117 0 -65 1 -127 2 -138 4 -46 -3 -74 -25 -97 -13 -14 -21 -30 -19
-36 4 -14 -24 -16 -33 -3 -3 5 0 13 6 16 5 4 8 12 6 19 -3 7 4 29 14 50 18 38
18 38 -1 33 -21 -5 -28 9 -8 15 11 4 18 41 20 106 1 17 5 32 10 32 5 0 6 5 3
11 -4 6 -8 24 -9 39 -3 36 -14 49 -26 30 -13 -21 -56 -20 -56 1 0 13 4 15 16
9 12 -6 24 -2 43 16 21 20 25 29 17 47 -5 12 -16 49 -26 82 -9 33 -20 65 -24
70 -13 20 -55 130 -52 139 2 4 -15 32 -38 61 -22 28 -40 57 -40 63 0 6 -22 34
-50 61 -76 76 -65 115 12 44z m-495 -40 c-4 -3 -2 -12 4 -20 6 -7 7 -13 3 -13
-5 0 -15 9 -22 20 -10 17 -10 20 5 20 9 0 13 -3 10 -7z m-18 -80 c6 -3 -34
-40 -51 -46 -12 -4 -18 -1 -18 8 0 19 21 30 30 15 5 -8 9 -5 13 9 3 12 1 21
-4 21 -5 0 -9 5 -9 11 0 8 6 7 18 -2 9 -7 19 -14 21 -16z m670 -4 c-15 -9 -32
-2 -24 11 3 5 13 6 21 3 12 -4 13 -8 3 -14z m-339 -3 c0 -3 -4 -8 -10 -11 -5
-3 -10 -1 -10 4 0 6 5 11 10 11 6 0 10 -2 10 -4z m-55 -36 c3 -5 1 -10 -4 -10
-6 0 -11 5 -11 10 0 6 2 10 4 10 3 0 8 -4 11 -10z m-315 -30 c0 -5 -4 -10 -9
-10 -6 0 -13 5 -16 10 -3 6 1 10 9 10 9 0 16 -4 16 -10z m220 6 c0 -3 -4 -8
-10 -11 -5 -3 -10 -1 -10 4 0 6 5 11 10 11 6 0 10 -2 10 -4z m-256 -22 c3 -8
2 -12 -4 -9 -6 3 -10 10 -10 16 0 14 7 11 14 -7z m306 6 c0 -5 -4 -10 -10 -10
-5 0 -10 5 -10 10 0 6 5 10 10 10 6 0 10 -4 10 -10z m84 -19 c3 -5 -1 -11 -9
-15 -9 -3 -15 0 -15 9 0 16 16 20 24 6z m46 5 c0 -3 -4 -8 -10 -11 -5 -3 -10
-1 -10 4 0 6 5 11 10 11 6 0 10 -2 10 -4z m207 -17 c1 -15 -2 -19 -13 -15 -9
3 -20 6 -26 6 -6 0 -6 6 2 15 18 21 35 19 37 -6z m-507 -23 c0 -11 -19 -15
-25 -6 -3 5 1 10 9 10 9 0 16 -2 16 -4z m15 -26 c3 -5 1 -10 -4 -10 -6 0 -11
5 -11 10 0 6 2 10 4 10 3 0 8 -4 11 -10z m70 0 c3 -5 1 -10 -4 -10 -6 0 -11 5
-11 10 0 6 2 10 4 10 3 0 8 -4 11 -10z m393 -13 c10 -8 10 -13 1 -21 -8 -8
-13 -8 -16 2 -3 6 -9 12 -15 12 -5 0 -16 7 -25 15 -14 14 -13 15 13 9 16 -4
35 -11 42 -17z m412 13 c0 -5 -2 -10 -4 -10 -3 0 -8 5 -11 10 -3 6 -1 10 4 10
6 0 11 -4 11 -10z m-1020 -20 c0 -5 -10 -10 -22 -9 -22 0 -22 1 -3 9 11 5 21
9 23 9 1 1 2 -3 2 -9z m660 -10 c0 -5 -5 -10 -11 -10 -5 0 -7 5 -4 10 3 6 8
10 11 10 2 0 4 -4 4 -10z m-340 -10 c-8 -5 -19 -10 -25 -10 -5 0 -3 5 5 10 8
5 20 10 25 10 6 0 3 -5 -5 -10z m159 -11 c-14 -8 -29 -3 -29 11 0 4 9 6 21 3
15 -4 17 -8 8 -14z m-124 -15 c-8 -9 -19 -12 -25 -9 -15 9 -5 20 19 22 19 2
20 0 6 -13z m675 6 c0 -5 -9 -10 -20 -10 -11 0 -20 5 -20 10 0 6 9 10 20 10
11 0 20 -4 20 -10z m280 0 c0 -5 -4 -10 -10 -10 -5 0 -10 5 -10 10 0 6 5 10
10 10 6 0 10 -4 10 -10z m-830 -20 c0 -5 -4 -10 -10 -10 -5 0 -10 5 -10 10 0
6 5 10 10 10 6 0 10 -4 10 -10z m113 -4 c4 -10 1 -13 -9 -9 -15 6 -19 23 -5
23 5 0 11 -7 14 -14z m352 4 c-3 -5 -11 -10 -16 -10 -6 0 -7 5 -4 10 3 6 11
10 16 10 6 0 7 -4 4 -10z m-45 -9 c0 -6 -4 -13 -10 -16 -5 -3 -10 1 -10 9 0 9
5 16 10 16 6 0 10 -4 10 -9z m139 -1 c5 0 8 -13 7 -30 -1 -16 -6 -30 -13 -30
-12 0 -12 17 0 38 5 7 3 12 -7 12 -8 0 -18 5 -22 12 -5 8 -2 9 10 5 10 -4 21
-7 25 -7z m-959 -32 c0 -5 -4 -8 -10 -8 -5 0 -10 10 -10 23 0 18 2 19 10 7 5
-8 10 -18 10 -22z m170 22 c0 -5 -4 -10 -10 -10 -5 0 -10 5 -10 10 0 6 5 10
10 10 6 0 10 -4 10 -10z m260 -2 c0 6 7 12 15 12 8 0 15 -4 15 -10 0 -5 -5
-10 -11 -10 -5 0 -7 -5 -3 -11 5 -8 -1 -10 -19 -7 -18 4 -24 1 -20 -9 3 -7 0
-13 -6 -13 -6 0 -11 9 -11 20 0 13 -5 18 -15 14 -8 -4 -15 -1 -15 6 0 7 8 10
20 7 11 -3 23 -1 26 5 4 6 10 5 15 -3 6 -10 9 -11 9 -1z m-495 -8 c3 -5 -1
-10 -9 -10 -9 0 -16 5 -16 10 0 6 4 10 9 10 6 0 13 -4 16 -10z m395 -6 c-15
-17 -41 -19 -34 -1 2 7 14 13 25 14 17 2 18 -1 9 -13z m770 2 c0 -11 -19 -15
-25 -6 -3 5 1 10 9 10 9 0 16 -2 16 -4z m144 -21 c3 -8 1 -15 -4 -15 -6 0 -10
7 -10 15 0 8 2 15 4 15 2 0 6 -7 10 -15z m-641 -2 c-7 -2 -19 -2 -25 0 -7 3
-2 5 12 5 14 0 19 -2 13 -5z m-105 -15 c-2 -7 3 -12 11 -13 8 0 16 -11 18 -25
l3 -25 -25 29 c-26 31 -31 46 -15 46 6 0 9 -5 8 -12z m-393 -8 c-3 -5 -15 -10
-26 -10 -11 0 -17 5 -14 10 3 6 15 10 26 10 11 0 17 -4 14 -10z m30 -10 c-10
-11 -20 -18 -23 -15 -7 6 18 35 31 35 5 0 2 -9 -8 -20z m494 4 c-13 -12 -23
-13 -50 -5 l-34 11 33 -3 c18 -2 35 0 38 5 3 4 10 8 17 8 7 0 5 -6 -4 -16z
m-264 -4 c-3 -5 -12 -10 -18 -10 -7 0 -6 4 3 10 19 12 23 12 15 0z m305 -15
c-7 -9 -15 -13 -18 -10 -3 2 1 11 8 20 7 9 15 13 18 10 3 -2 -1 -11 -8 -20z
m160 21 c0 -2 -7 -6 -15 -10 -8 -3 -15 -1 -15 4 0 6 7 10 15 10 8 0 15 -2 15
-4z m110 -6 c0 -5 -5 -10 -11 -10 -5 0 -7 5 -4 10 3 6 8 10 11 10 2 0 4 -4 4
-10z m-465 -20 c-3 -4 1 -11 7 -13 8 -4 7 -6 -4 -6 -11 -1 -16 6 -15 18 0 11
5 17 9 15 5 -3 6 -9 3 -14z m80 -1 c11 -17 -1 -21 -15 -4 -8 9 -8 15 -2 15 6
0 14 -5 17 -11z m-220 -9 c20 -9 17 -11 -22 -15 -23 -2 -29 5 -16 18 8 8 12 8
38 -3z m81 -2 c-4 6 -2 12 3 12 13 0 13 -3 5 -24 -6 -16 -35 -22 -47 -10 -3 3
0 12 6 19 9 10 15 10 26 1 12 -8 13 -8 7 2z m174 2 c0 -5 -4 -10 -10 -10 -5 0
-10 5 -10 10 0 6 5 10 10 10 6 0 10 -4 10 -10z m-346 -16 c3 -8 2 -12 -4 -9
-6 3 -10 10 -10 16 0 14 7 11 14 -7z m-84 -14 c0 -23 -31 -27 -49 -7 -14 17
-4 27 26 27 16 0 23 -6 23 -20z m735 10 c-3 -5 -10 -10 -16 -10 -5 0 -9 5 -9
10 0 6 7 10 16 10 8 0 12 -4 9 -10z m65 -1 c0 -7 10 -9 25 -5 14 4 25 2 25 -4
0 -16 -46 -12 -60 5 -9 10 -9 15 -1 15 6 0 11 -5 11 -11z m-605 -9 c-3 -5 -1
-10 6 -10 7 0 9 -3 6 -7 -4 -3 -2 -12 4 -20 9 -10 8 -13 -5 -13 -9 0 -16 6
-16 14 0 8 -6 17 -12 19 -10 4 -9 8 2 16 19 13 23 14 15 1z m102 -20 c-20 -9
-34 -20 -30 -23 3 -4 1 -7 -5 -7 -6 0 -9 -7 -5 -17 4 -10 2 -14 -4 -10 -6 4
-13 2 -15 -5 -2 -6 -10 -8 -16 -4 -9 5 -8 11 4 23 12 13 13 18 3 24 -19 11 -5
22 29 23 17 1 28 6 25 12 -3 8 5 10 24 6 l28 -5 -38 -17z m-406 10 c5 0 9 -9
9 -20 0 -11 -5 -20 -11 -20 -5 0 -8 4 -5 9 3 5 -3 11 -14 14 -11 3 -20 11 -20
17 0 7 7 10 16 6 9 -3 20 -6 25 -6z m509 -9 c0 -5 -7 -12 -16 -15 -24 -9 -28
-7 -14 9 14 17 30 20 30 6z m119 -9 c-7 -3 -17 -10 -21 -16 -5 -7 -8 -5 -8 5
0 22 9 29 28 21 13 -5 14 -6 1 -10z m506 8 c3 -5 1 -10 -4 -10 -6 0 -11 5 -11
10 0 6 2 10 4 10 3 0 8 -4 11 -10z m-315 -5 c0 -2 -10 -9 -22 -15 -22 -11 -22
-10 -4 4 21 17 26 19 26 11z m50 1 c0 -2 -9 -6 -20 -9 -11 -3 -20 -1 -20 4 0
5 9 9 20 9 11 0 20 -2 20 -4z m90 -15 c0 -5 -7 -14 -15 -21 -16 -14 -18 -10
-9 14 6 17 24 22 24 7z m-850 -17 c0 -2 -9 -4 -20 -4 -11 0 -20 4 -20 9 0 5 9
7 20 4 11 -3 20 -7 20 -9z m-180 -4 c0 -5 -7 -10 -15 -10 -8 0 -15 5 -15 10 0
6 7 10 15 10 8 0 15 -4 15 -10z m520 2 c0 -16 -28 -47 -36 -39 -4 4 -2 7 4 7
7 0 12 9 12 20 0 11 5 20 10 20 6 0 10 -4 10 -8z m320 -2 c0 -5 -7 -7 -15 -4
-8 4 -15 8 -15 10 0 2 7 4 15 4 8 0 15 -4 15 -10z m55 0 c3 -5 -1 -10 -9 -10
-9 0 -16 5 -16 10 0 6 4 10 9 10 6 0 13 -4 16 -10z m-760 -11 c12 -19 -5 -23
-22 -6 -16 16 -16 17 -1 17 9 0 20 -5 23 -11z m235 1 c0 -5 -5 -10 -11 -10 -5
0 -7 5 -4 10 3 6 8 10 11 10 2 0 4 -4 4 -10z m-180 -10 c0 -5 -9 -10 -21 -10
-11 0 -17 5 -14 10 3 6 13 10 21 10 8 0 14 -4 14 -10z m440 0 c0 -5 -9 -10
-19 -10 -11 0 -23 5 -26 10 -4 6 5 10 19 10 14 0 26 -4 26 -10z m260 -4 c0 -3
-4 -8 -10 -11 -5 -3 -10 -1 -10 4 0 6 5 11 10 11 6 0 10 -2 10 -4z m77 -2 c-3
-3 -12 -4 -19 -1 -8 3 -5 6 6 6 11 1 17 -2 13 -5z m73 1 c0 -3 -11 -16 -25
-29 -13 -13 -21 -27 -17 -32 4 -4 -1 -2 -11 6 -17 13 -17 15 10 36 27 23 43
29 43 19z m-770 -15 c0 -5 -5 -10 -11 -10 -5 0 -7 5 -4 10 3 6 8 10 11 10 2 0
4 -4 4 -10z m-134 -11 c7 -11 -27 -11 -45 0 -9 6 -5 9 13 9 15 0 29 -4 32 -9z
m254 -7 c0 -4 -9 -8 -20 -8 -22 0 -27 12 -7 19 14 5 27 -1 27 -11z m150 8 c0
-5 -4 -10 -10 -10 -5 0 -10 5 -10 10 0 6 5 10 10 10 6 0 10 -4 10 -10z m59 0
c12 6 21 9 21 6 0 -2 3 -12 6 -21 5 -13 1 -15 -22 -10 -25 4 -24 3 5 -8 20 -8
30 -16 24 -20 -17 -11 -73 4 -73 19 0 8 -6 11 -16 7 -14 -5 -14 -3 -3 15 9 15
17 18 25 11 9 -7 19 -7 33 1z m481 6 c0 -2 -7 -7 -16 -10 -8 -3 -12 -2 -9 4 6
10 25 14 25 6z m-120 -27 c0 -4 -7 -6 -15 -3 -8 4 -15 10 -15 15 0 4 7 6 15 3
8 -4 15 -10 15 -15z m-460 3 c0 -4 -10 -9 -22 -9 -18 -2 -20 0 -8 7 18 12 30
13 30 2z m-380 -22 c0 -5 -7 -7 -15 -4 -8 4 -12 10 -9 15 6 11 24 2 24 -11z
m35 10 c-3 -5 -1 -10 5 -10 7 0 10 -7 6 -15 -3 -8 0 -15 6 -15 6 0 9 -2 7 -5
-3 -2 -18 0 -35 4 -18 6 -22 10 -10 10 14 1 16 4 7 14 -11 14 -5 27 11 27 5 0
6 -4 3 -10z m58 -10 c23 0 15 -13 -11 -17 -12 -1 -18 5 -19 20 0 12 1 16 4 10
3 -7 14 -13 26 -13z m37 10 c8 -5 12 -11 10 -14 -3 -2 -14 2 -24 10 -22 15
-10 19 14 4z m630 -10 c0 -5 -5 -10 -11 -10 -5 0 -7 5 -4 10 3 6 8 10 11 10 2
0 4 -4 4 -10z m-880 -10 c0 -5 -4 -10 -10 -10 -5 0 -10 5 -10 10 0 6 5 10 10
10 6 0 10 -4 10 -10z m1075 0 c3 -5 1 -10 -4 -10 -6 0 -11 5 -11 10 0 6 2 10
4 10 3 0 8 -4 11 -10z m-355 -4 c0 -11 -19 -15 -25 -6 -3 5 1 10 9 10 9 0 16
-2 16 -4z m-445 -22 c19 -14 19 -15 -10 -10 -16 2 -31 5 -33 5 -6 2 9 21 16
21 4 0 16 -8 27 -16z m187 4 c-9 -9 -15 -9 -24 0 -9 9 -7 12 12 12 19 0 21 -3
12 -12z m424 -3 c16 -12 16 -14 2 -9 -11 4 -20 0 -24 -10 -6 -15 -34 -23 -34
-10 0 11 21 44 28 44 5 0 17 -7 28 -15z m-289 -1 c-3 -3 -12 -4 -19 -1 -8 3
-5 6 6 6 11 1 17 -2 13 -5z m-429 -23 c3 -9 -1 -11 -16 -7 -11 4 -23 2 -27 -4
-3 -5 -11 -10 -16 -10 -6 0 -8 4 -4 9 3 5 0 11 -7 14 -7 2 -3 2 10 0 12 -2 22
2 22 8 0 15 32 7 38 -10z m192 -14 c0 -4 -9 -3 -20 3 -19 10 -24 6 -21 -13 1
-5 -3 -7 -9 -5 -19 6 -14 22 11 35 23 12 38 4 39 -20z m80 25 c0 -4 -9 -13
-19 -19 -16 -10 -18 -9 -14 8 5 18 33 28 33 11z m-410 -23 c0 -4 -7 -6 -15 -3
-8 4 -15 10 -15 15 0 4 7 6 15 3 8 -4 15 -10 15 -15z m470 12 c0 -5 -9 -7 -20
-4 -11 3 -20 7 -20 9 0 2 9 4 20 4 11 0 20 -4 20 -9z m494 -6 c-6 -14 -44 -22
-44 -10 0 4 29 19 47 24 1 1 0 -6 -3 -14z m-367 -6 c15 -7 36 -13 45 -14 41
-4 28 -15 -14 -13 -26 2 -46 5 -46 8 1 20 -4 21 -17 4 -12 -15 -16 -16 -23 -6
-7 11 -10 9 -14 -6 -6 -23 7 -50 19 -39 4 5 1 12 -7 17 -9 6 -10 10 -3 10 6 0
14 -4 17 -9 3 -4 18 -7 33 -5 26 2 27 2 9 -11 -10 -8 -15 -18 -12 -24 8 -12
-30 -25 -46 -15 -8 5 -9 2 -5 -9 7 -18 -7 -32 -24 -22 -7 5 -5 15 5 31 14 20
14 23 1 18 -12 -5 -14 -1 -11 17 3 13 5 25 7 27 1 1 2 7 3 14 0 7 12 18 26 25
30 15 23 15 57 2z m-637 -9 c0 -5 -2 -10 -4 -10 -3 0 -8 5 -11 10 -3 6 -1 10
4 10 6 0 11 -4 11 -10z m860 -10 c0 -5 -5 -10 -11 -10 -5 0 -7 5 -4 10 3 6 8
10 11 10 2 0 4 -4 4 -10z m95 0 c3 -5 1 -10 -4 -10 -6 0 -11 5 -11 10 0 6 2
10 4 10 3 0 8 -4 11 -10z m-905 -10 c0 -5 -4 -10 -10 -10 -5 0 -10 5 -10 10 0
6 5 10 10 10 6 0 10 -4 10 -10z m89 1 c17 -11 3 -19 -29 -16 -33 4 -32 4 -25
15 8 12 35 13 54 1z m121 -6 c0 -8 7 -15 15 -15 17 0 20 -16 5 -25 -5 -3 -10
-11 -10 -16 0 -6 5 -7 10 -4 6 3 10 1 10 -4 0 -14 -13 -14 -27 0 -6 6 -9 18
-5 27 4 12 1 14 -13 9 -15 -6 -16 -5 -5 8 10 12 10 15 -4 15 -9 0 -16 5 -16
10 0 6 9 10 20 10 11 0 20 -7 20 -15z m125 5 c4 -6 -5 -10 -20 -10 -15 0 -24
4 -20 10 3 6 12 10 20 10 8 0 17 -4 20 -10z m85 0 c0 -5 -4 -10 -10 -10 -5 0
-10 5 -10 10 0 6 5 10 10 10 6 0 10 -4 10 -10z m54 -15 c-4 -8 -1 -15 6 -15 9
0 10 -3 1 -13 -6 -8 -7 -17 -3 -21 4 -4 -8 -6 -27 -4 -28 2 -35 8 -36 26 -1
15 3 21 11 18 7 -3 18 2 24 10 16 18 31 18 24 -1z m-194 -5 c0 -5 -4 -10 -10
-10 -5 0 -10 5 -10 10 0 6 5 10 10 10 6 0 10 -4 10 -10z m675 0 c3 -5 2 -10
-4 -10 -5 0 -13 5 -16 10 -3 6 -2 10 4 10 5 0 13 -4 16 -10z m-615 -10 c0 -5
-2 -10 -4 -10 -3 0 -8 5 -11 10 -3 6 -1 10 4 10 6 0 11 -4 11 -10z m572 3 c-6
-2 -9 -10 -6 -15 4 -7 2 -8 -5 -4 -13 9 -5 26 12 25 9 0 8 -2 -1 -6z m-62 -12
c0 -6 -4 -13 -10 -16 -5 -3 -10 1 -10 9 0 9 5 16 10 16 6 0 10 -4 10 -9z
m-190 -25 c0 -2 -9 -6 -20 -9 -11 -3 -18 -1 -14 4 5 9 34 13 34 5z m357 -4 c9
-6 7 -11 -7 -20 -20 -12 -36 -1 -25 18 7 12 16 12 32 2z m-809 -27 c-3 -3 -9
2 -12 12 -6 14 -5 15 5 6 7 -7 10 -15 7 -18z m170 13 c9 -9 12 -9 12 0 0 7 7
12 15 12 8 0 15 -5 15 -11 0 -6 8 -8 19 -4 14 4 28 -3 48 -24 29 -29 45 -33
71 -17 7 4 16 5 19 2 3 -3 -2 -8 -11 -12 -9 -3 -16 -12 -16 -20 0 -14 9 -17
40 -15 10 0 11 -1 2 -5 -6 -3 -10 -10 -7 -14 3 -5 -4 -14 -15 -20 -17 -9 -20
-8 -17 12 1 15 -3 22 -12 20 -8 -2 -11 3 -8 13 4 9 1 15 -8 15 -8 0 -15 -4
-15 -10 0 -5 -11 -10 -25 -10 -16 0 -25 -6 -25 -15 0 -8 -4 -15 -10 -15 -5 0
-9 10 -7 22 1 12 -4 23 -10 24 -7 1 -19 2 -25 3 -8 1 -6 6 5 12 9 5 17 15 17
20 0 6 -4 7 -10 4 -5 -3 -15 -1 -22 5 -7 6 -22 17 -33 25 -11 8 -15 15 -9 15
5 0 15 -5 22 -12z m-94 -13 c-22 -17 -34 -19 -34 -6 0 5 8 12 18 14 32 9 36 7
16 -8z m646 5 c0 -5 -5 -10 -11 -10 -5 0 -7 5 -4 10 3 6 8 10 11 10 2 0 4 -4
4 -10z m-376 -15 c-4 -8 -11 -15 -16 -15 -6 0 -5 6 2 15 7 8 14 15 16 15 2 0
1 -7 -2 -15z m313 2 c4 -6 0 -8 -11 -4 -14 6 -16 3 -11 -16 4 -14 3 -18 -3 -9
-5 7 -17 10 -28 6 -14 -4 -16 -3 -5 4 7 5 11 14 7 20 -3 5 5 10 19 10 14 0 28
-5 32 -11z m-516 -7 c6 0 7 -5 4 -10 -5 -8 -12 -7 -23 2 -12 10 -16 10 -19 1
-3 -7 -12 -13 -21 -13 -15 1 -14 3 3 16 11 8 26 12 33 9 8 -3 18 -5 23 -5z
m443 -5 c-7 -16 -24 -21 -24 -6 0 8 7 13 27 20 1 1 0 -6 -3 -14z m183 0 c0 -8
-4 -12 -9 -9 -5 3 -6 10 -3 15 9 13 12 11 12 -6z m-862 -33 c0 -15 26 -33 37
-26 16 10 48 13 48 4 0 -11 -68 -25 -77 -16 -3 3 -11 2 -17 -3 -6 -4 -20 -11
-31 -14 -18 -6 -17 -5 3 9 12 9 22 23 22 30 0 17 -12 18 -28 2 -9 -9 -12 -7
-12 11 0 18 5 22 28 19 15 -2 27 -9 27 -16z m470 -2 c-3 -5 -12 -10 -18 -10
-7 0 -6 4 3 10 19 12 23 12 15 0z m-325 -10 c0 -5 -4 -10 -10 -10 -5 0 -10 5
-10 10 0 6 5 10 10 10 6 0 10 -4 10 -10z m633 -20 c10 -10 9 -11 -1 -5 -8 4
-23 -2 -37 -15 -17 -16 -29 -20 -42 -14 -15 7 -14 8 10 12 24 3 31 12 28 34
-1 11 28 3 42 -12z m-643 -10 c8 -5 12 -12 9 -15 -8 -8 -39 5 -39 16 0 11 11
11 30 -1z m135 -9 c-3 -6 -11 -8 -17 -5 -6 4 -5 9 3 15 16 10 23 4 14 -10z
m349 4 c-6 -16 -24 -21 -24 -7 0 11 11 22 21 22 5 0 6 -7 3 -15z m-399 -5 c3
-5 -1 -10 -9 -10 -9 0 -16 5 -16 10 0 6 4 10 9 10 6 0 13 -4 16 -10z m165 -10
c0 -5 7 -10 15 -10 16 0 19 -9 9 -34 -7 -17 -34 -22 -34 -6 0 6 5 10 11 10 6
0 3 7 -5 16 -18 18 -21 34 -6 34 6 0 10 -4 10 -10z m435 0 c3 -5 2 -10 -4 -10
-5 0 -13 5 -16 10 -3 6 -2 10 4 10 5 0 13 -4 16 -10z m-839 -37 c-11 -11 -17
4 -9 23 7 18 8 18 11 1 2 -10 1 -21 -2 -24z m324 15 c0 -12 -1 -19 -3 -17 -1
2 -9 12 -16 22 -12 14 -11 17 3 17 10 0 16 -8 16 -22z m185 -6 c-8 -8 -25 10
-19 20 4 6 9 5 15 -3 4 -7 6 -15 4 -17z m82 -4 c-3 -8 -6 -5 -6 6 -1 11 2 17
5 13 3 -3 4 -12 1 -19z m60 0 c-3 -8 -6 -5 -6 6 -1 11 2 17 5 13 3 -3 4 -12 1
-19z m233 13 c0 -5 -7 -12 -16 -15 -24 -9 -28 -7 -14 9 14 17 30 20 30 6z
m-87 -19 c16 -18 15 -18 -16 -13 -21 3 -26 6 -13 9 15 3 16 6 5 13 -8 5 -9 9
-3 9 6 0 18 -8 27 -18z m-644 -23 c-22 -13 -31 -11 -17 5 7 8 17 12 22 9 4 -3
2 -9 -5 -14z m131 11 c0 -13 -11 -13 -30 0 -12 8 -11 10 8 10 12 0 22 -4 22
-10z m298 -12 c19 -19 14 -28 -13 -26 -14 1 -25 3 -25 4 0 1 3 9 6 18 7 19 16
20 32 4z m116 -3 c-7 -17 -20 -20 -28 -6 -4 5 0 12 6 14 23 9 28 7 22 -8z
m156 11 c0 -3 -4 -8 -10 -11 -5 -3 -10 -1 -10 4 0 6 5 11 10 11 6 0 10 -2 10
-4z m-775 -16 c3 -5 2 -10 -4 -10 -5 0 -13 5 -16 10 -3 6 -2 10 4 10 5 0 13
-4 16 -10z m135 -10 c0 -5 -4 -10 -10 -10 -5 0 -10 5 -10 10 0 6 5 10 10 10 6
0 10 -4 10 -10z m80 0 c8 -5 11 -10 5 -10 -5 0 -17 5 -25 10 -8 5 -10 10 -5
10 6 0 17 -5 25 -10z m164 1 c3 -5 -1 -12 -10 -15 -27 -10 -35 -7 -22 9 15 17
25 19 32 6z m373 -21 c1 -11 -2 -22 -8 -25 -5 -4 -9 1 -9 9 0 9 -5 16 -11 16
-5 0 -7 5 -4 10 11 17 31 11 32 -10z m-666 -13 c-10 -9 -11 -8 -5 6 3 10 9 15
12 12 3 -3 0 -11 -7 -18z m189 -3 c0 -8 -4 -12 -10 -9 -5 3 -10 10 -10 16 0 5
5 9 10 9 6 0 10 -7 10 -16z m190 -4 c0 -5 -5 -10 -11 -10 -5 0 -7 5 -4 10 3 6
8 10 11 10 2 0 4 -4 4 -10z m30 -14 c0 -14 -29 -30 -38 -21 -3 3 0 5 6 5 7 0
12 7 12 15 0 8 5 15 10 15 6 0 10 -6 10 -14z m72 0 c3 3 8 -4 11 -15 3 -15 1
-18 -11 -14 -10 4 -13 2 -8 -5 5 -8 0 -12 -13 -12 -23 0 -29 16 -8 23 9 3 8 8
-3 22 -14 17 -14 17 6 7 12 -6 24 -9 26 -6z m-262 -16 c0 -5 -4 -10 -10 -10
-5 0 -10 5 -10 10 0 6 5 10 10 10 6 0 10 -4 10 -10z m-45 -10 c-3 -5 -12 -10
-18 -10 -7 0 -6 4 3 10 19 12 23 12 15 0z m-121 -9 c4 -5 -3 -7 -14 -4 -23 6
-26 13 -6 13 8 0 17 -4 20 -9z m76 -7 c0 -2 -9 -4 -21 -4 -11 0 -18 4 -14 10
5 8 35 3 35 -6z m410 -15 c0 -6 -4 -7 -10 -4 -5 3 -10 11 -10 16 0 6 5 7 10 4
6 -3 10 -11 10 -16z m-450 -33 c0 -3 -4 -8 -10 -11 -5 -3 -10 -1 -10 4 0 6 5
11 10 11 6 0 10 -2 10 -4z"/>
<path d="M1588 2543 c7 -3 16 -2 19 1 4 3 -2 6 -13 5 -11 0 -14 -3 -6 -6z"/>
<path d="M2020 2229 c0 -5 5 -7 10 -4 6 3 10 8 10 11 0 2 -4 4 -10 4 -5 0 -10
-5 -10 -11z"/>
<path d="M3006 2555 c-15 -14 -31 -25 -36 -25 -13 0 -60 -102 -53 -113 3 -6 1
-7 -5 -3 -12 7 -52 -27 -52 -43 0 -6 -16 -22 -36 -37 -19 -15 -42 -40 -50 -56
-8 -15 -21 -28 -30 -28 -8 0 -12 -4 -9 -10 5 -9 -34 -76 -122 -206 -19 -28
-36 -63 -37 -78 -2 -15 -13 -36 -25 -47 -18 -17 -27 -51 -22 -81 0 -5 -3 -8
-7 -8 -9 0 -35 -47 -36 -65 -1 -5 -14 -32 -30 -59 -22 -37 -29 -60 -27 -88 1
-22 -3 -46 -10 -54 -10 -13 -10 -17 0 -24 10 -5 10 -9 2 -11 -7 -3 -14 -18
-15 -34 -2 -16 -9 -31 -15 -33 -6 -2 -11 -10 -11 -19 0 -8 -6 -29 -14 -46 -13
-29 -23 -66 -29 -107 -1 -8 -8 -19 -16 -24 -10 -6 -11 -10 -1 -16 8 -5 9 -13
4 -21 -4 -8 -9 -20 -10 -29 -7 -51 -18 -96 -24 -105 -4 -5 -6 -23 -4 -40 2
-16 -2 -32 -7 -36 -6 -3 -13 -25 -16 -48 -3 -22 -10 -41 -14 -41 -5 0 -9 5 -9
10 0 19 -21 10 -30 -12 -5 -13 -9 -18 -10 -13 0 6 -4 4 -9 -4 -6 -10 -3 -28
10 -53 11 -21 15 -38 9 -38 -5 0 -10 -6 -10 -14 0 -16 -70 -72 -86 -68 -7 1
-14 -4 -18 -13 -3 -8 -10 -15 -16 -15 -6 0 -8 5 -5 10 12 20 -6 50 -30 50 -13
0 -26 6 -29 13 -3 9 -8 7 -19 -5 -10 -12 -17 -14 -24 -7 -12 12 -37 3 -29 -10
3 -4 -5 -8 -16 -8 -20 -2 -20 -1 -2 12 15 11 16 14 4 15 -36 0 -60 -13 -55
-30 3 -10 -4 -27 -18 -42 -13 -14 -21 -30 -19 -36 2 -7 -1 -12 -6 -12 -6 0
-18 -3 -26 -6 -27 -10 -4 35 24 49 31 16 38 54 13 72 -15 12 -19 11 -25 -3 -6
-15 -7 -15 -7 1 -1 10 3 27 9 37 7 13 6 19 -6 24 -9 4 -14 13 -10 21 7 20 -14
65 -31 65 -7 0 -13 5 -13 11 0 6 6 9 14 6 12 -5 12 0 5 26 -5 18 -14 33 -19
35 -6 2 -10 13 -10 23 0 11 -4 17 -10 14 -5 -3 -10 -2 -10 4 0 5 4 12 9 15 12
8 -19 86 -36 93 -7 3 -13 11 -13 19 0 8 -7 14 -15 14 -13 0 -14 4 -5 21 12 22
6 54 -8 45 -5 -3 -9 7 -9 22 0 36 -54 152 -70 152 -7 0 -12 5 -11 12 2 6 -7
17 -19 23 -13 7 -21 14 -19 16 15 17 14 60 -1 75 -10 10 -18 34 -19 58 -2 64
-21 106 -50 106 -13 0 -25 6 -26 13 -5 46 -18 69 -35 62 -11 -3 -13 -1 -10 10
4 8 2 17 -3 20 -6 4 -10 13 -10 22 0 8 -11 29 -25 47 -36 44 -38 48 -54 79 -8
15 -21 27 -29 27 -9 0 -12 6 -8 16 4 10 -1 25 -11 36 -9 11 -19 31 -21 45 -1
14 -9 32 -17 40 -8 7 -29 34 -46 58 -18 25 -36 45 -41 45 -5 0 -7 4 -4 8 3 5
-8 21 -25 36 -20 20 -40 28 -64 28 -19 0 -35 5 -35 10 0 7 -5 6 -14 -1 -8 -6
-20 -10 -27 -9 -17 4 -27 -42 -14 -69 5 -13 13 -23 18 -23 4 0 7 -8 7 -18 0
-22 33 -116 47 -134 5 -7 11 -29 11 -48 3 -56 17 -95 35 -94 10 1 17 -2 17 -7
0 -5 -6 -9 -13 -9 -7 0 -13 -9 -13 -20 0 -11 4 -20 8 -20 4 0 8 -13 8 -28 0
-16 3 -32 8 -36 4 -4 7 -11 7 -15 0 -8 37 -83 45 -91 3 -3 6 -12 8 -20 2 -8
15 -40 29 -70 15 -30 25 -59 24 -65 -1 -5 4 -14 11 -20 15 -12 34 -41 48 -72
5 -13 14 -23 19 -23 5 0 12 -15 15 -34 4 -19 16 -46 27 -60 11 -14 18 -26 15
-26 -2 0 9 -30 26 -67 17 -37 31 -77 33 -88 4 -29 56 -145 66 -145 4 0 11 5
14 10 3 6 12 10 18 10 7 -1 2 -9 -10 -19 -26 -22 -30 -33 -8 -25 8 4 15 1 15
-5 0 -6 -4 -11 -10 -11 -5 0 -7 -7 -4 -15 4 -8 17 -15 30 -15 28 0 31 8 8 24
-13 10 -13 12 6 13 14 1 24 -6 30 -23 13 -34 14 -33 -22 -29 -31 4 -32 3 -14
-10 11 -8 16 -15 12 -15 -5 0 -4 -6 1 -12 6 -7 13 -30 17 -50 8 -44 45 -107
64 -108 6 0 12 -6 12 -14 0 -8 4 -16 8 -18 5 -2 23 -24 41 -50 17 -27 36 -48
41 -48 5 0 13 -15 19 -32 13 -40 78 -113 100 -113 9 0 23 6 33 13 11 9 18 10
23 2 4 -7 28 -9 68 -5 92 9 99 12 137 44 19 17 40 34 45 39 6 5 22 12 37 15
30 8 89 55 139 111 19 22 44 50 57 63 12 13 22 28 22 33 0 6 7 10 16 10 9 0
30 16 47 35 17 19 37 35 46 35 8 0 12 3 8 6 -3 3 8 24 24 47 16 22 29 48 29
59 0 10 4 18 9 18 12 0 41 58 32 63 -3 2 -1 2 6 1 6 -2 23 16 37 40 14 23 32
48 40 55 8 7 18 26 21 43 4 16 25 48 46 70 21 22 39 44 39 48 0 5 20 32 44 60
25 29 52 67 61 85 8 19 29 45 46 59 17 14 28 26 24 26 -4 0 3 12 14 26 12 15
21 34 21 43 0 9 16 45 35 81 20 36 33 72 30 81 -7 20 17 110 43 163 15 31 17
63 14 248 -4 240 -4 222 0 341 l3 87 -41 0 c-30 0 -48 -7 -68 -25z m21 -401
c-9 -9 -28 6 -21 18 4 6 10 6 17 -1 6 -6 8 -13 4 -17z m-305 -26 c-7 -7 -12
-8 -12 -2 0 14 12 26 19 19 2 -3 -1 -11 -7 -17z m-1635 -40 c2 -18 0 -20 -7
-8 -12 18 -13 30 -2 30 4 0 9 -10 9 -22z m97 -32 c-6 -15 -24 -23 -24 -11 0 8
24 34 28 30 1 -1 0 -10 -4 -19z m1526 20 c0 -3 -4 -8 -10 -11 -5 -3 -10 -1
-10 4 0 6 5 11 10 11 6 0 10 -2 10 -4z m-1570 -15 c0 -12 -20 -25 -27 -18 -7
7 6 27 18 27 5 0 9 -4 9 -9z m1885 -1 c3 -5 1 -10 -4 -10 -6 0 -11 5 -11 10 0
6 2 10 4 10 3 0 8 -4 11 -10z m-1795 -40 c0 -5 -5 -10 -11 -10 -5 0 -7 5 -4
10 3 6 8 10 11 10 2 0 4 -4 4 -10z m-63 -50 c1 -16 -1 -17 -12 -7 -11 10 -8
19 10 27 1 0 1 -9 2 -20z m98 -20 c3 -6 -1 -7 -9 -4 -18 7 -21 14 -7 14 6 0
13 -4 16 -10z m-28 -82 c-3 -8 -6 -5 -6 6 -1 11 2 17 5 13 3 -3 4 -12 1 -19z
m-140 -4 c-3 -3 -12 -4 -19 -1 -8 3 -5 6 6 6 11 1 17 -2 13 -5z m233 -14 c0
-5 -4 -10 -10 -10 -5 0 -10 5 -10 10 0 6 5 10 10 10 6 0 10 -4 10 -10z m-110
-14 c0 -11 -19 -15 -25 -6 -3 5 1 10 9 10 9 0 16 -2 16 -4z m1395 -66 c3 -5
-1 -10 -10 -10 -9 0 -13 5 -10 10 3 6 8 10 10 10 2 0 7 -4 10 -10z m-1305 -4
c0 -3 -4 -8 -10 -11 -5 -3 -10 -1 -10 4 0 6 5 11 10 11 6 0 10 -2 10 -4z
m1450 -6 c0 -5 -4 -10 -10 -10 -5 0 -10 5 -10 10 0 6 5 10 10 10 6 0 10 -4 10
-10z m-1610 -14 c0 -11 -19 -15 -25 -6 -3 5 1 10 9 10 9 0 16 -2 16 -4z m70
-80 c0 -3 -4 -8 -10 -11 -5 -3 -10 -1 -10 4 0 6 5 11 10 11 6 0 10 -2 10 -4z
m1370 -11 c0 -9 -6 -12 -15 -9 -8 4 -12 10 -9 15 8 14 24 10 24 -6z m-1217
-12 c-5 -13 -2 -15 15 -11 16 5 19 2 15 -11 -3 -9 -10 -21 -14 -27 -5 -6 -6
-14 -2 -17 3 -4 1 -7 -5 -7 -16 0 -28 23 -14 28 17 5 15 22 -2 22 -22 0 -27
36 -5 37 12 1 16 -3 12 -14z m-158 -23 c3 -5 2 -10 -4 -10 -5 0 -13 5 -16 10
-3 6 -2 10 4 10 5 0 13 -4 16 -10z m63 -9 c3 -8 -1 -12 -9 -9 -7 2 -15 10 -17
17 -3 8 1 12 9 9 7 -2 15 -10 17 -17z m1262 9 c0 -5 -8 -10 -17 -10 -15 0 -16
2 -3 10 19 12 20 12 20 0z m-60 -25 c-7 -8 -18 -15 -24 -15 -6 0 -2 7 8 15 25
19 32 19 16 0z m-1034 -16 c3 -5 -3 -9 -14 -9 -23 0 -25 -28 -3 -54 15 -18 15
-19 -4 -8 -15 8 -23 6 -37 -10 -18 -21 -38 -17 -38 9 0 8 6 13 13 10 17 -7 44
9 34 20 -5 4 -11 2 -15 -4 -5 -8 -13 -9 -22 -3 -11 7 -8 10 13 16 17 4 27 13
26 23 -1 9 -1 19 0 23 1 8 40 -2 47 -13z m1174 11 c0 -5 -4 -10 -10 -10 -5 0
-10 5 -10 10 0 6 5 10 10 10 6 0 10 -4 10 -10z m246 1 c-3 -5 -15 -7 -26 -4
-28 7 -25 13 6 13 14 0 23 -4 20 -9z m24 -21 c0 -5 -4 -10 -10 -10 -5 0 -10 5
-10 10 0 6 5 10 10 10 6 0 10 -4 10 -10z m-1424 -26 c-15 -14 -36 -19 -36 -8
0 11 34 33 42 27 5 -2 2 -11 -6 -19z m1294 22 c0 -3 -4 -8 -10 -11 -5 -3 -10
-1 -10 4 0 6 5 11 10 11 6 0 10 -2 10 -4z m-1534 -33 c-10 -10 -19 5 -10 18 6
11 8 11 12 0 2 -7 1 -15 -2 -18z m60 3 c21 -21 17 -46 -6 -46 -11 0 -20 5 -20
10 0 6 7 10 16 10 8 0 13 4 9 10 -3 5 -12 7 -20 3 -15 -5 -21 8 -8 20 9 10 13
9 29 -7z m1584 10 c0 -11 -19 -15 -25 -6 -3 5 1 10 9 10 9 0 16 -2 16 -4z
m-1370 -16 c0 -5 -4 -10 -10 -10 -5 0 -10 5 -10 10 0 6 5 10 10 10 6 0 10 -4
10 -10z m1060 -11 c0 -5 -2 -9 -4 -9 -2 0 -11 -3 -19 -6 -12 -4 -14 0 -10 15
5 19 33 19 33 0z m38 9 c-6 -18 -25 -21 -25 -3 0 8 7 15 15 15 7 0 12 -5 10
-12z m-1128 -12 c0 -3 -4 -8 -10 -11 -5 -3 -10 -1 -10 4 0 6 5 11 10 11 6 0
10 -2 10 -4z m54 -20 c-10 -8 -21 -12 -23 -10 -3 2 4 11 15 18 10 8 21 12 23
10 3 -2 -4 -11 -15 -18z m-34 -11 c0 -8 -4 -15 -9 -15 -13 0 -22 16 -14 24 11
11 23 6 23 -9z m1020 5 c0 -5 -4 -10 -10 -10 -5 0 -10 5 -10 10 0 6 5 10 10
10 6 0 10 -4 10 -10z m160 0 c0 -5 -5 -10 -11 -10 -5 0 -7 5 -4 10 3 6 8 10
11 10 2 0 4 -4 4 -10z m-1330 -10 c0 -5 -4 -10 -10 -10 -5 0 -10 5 -10 10 0 6
5 10 10 10 6 0 10 -4 10 -10z m170 -23 c-14 -12 -31 -35 -39 -50 -15 -28 -31
-36 -31 -14 1 14 38 57 66 74 30 18 31 15 4 -10z m940 13 c0 -5 -7 -10 -16
-10 -8 0 -12 5 -9 10 3 6 10 10 16 10 5 0 9 -4 9 -10z m-1147 -16 c-5 -14 -3
-15 16 -5 24 14 41 7 41 -16 0 -12 -3 -13 -14 -4 -7 6 -20 9 -29 5 -17 -6 -31
11 -22 26 10 16 15 12 8 -6z m1324 -9 c-13 -26 -30 -35 -21 -10 4 8 1 15 -5
15 -10 0 -15 -14 -12 -32 0 -5 -6 -8 -14 -8 -8 0 -15 6 -15 14 0 19 27 39 45
33 8 -4 17 -2 20 3 12 19 13 9 2 -15z m-1070 -20 c0 -8 -4 -12 -9 -9 -5 3 -6
10 -3 15 9 13 12 11 12 -6z m890 9 c-3 -3 -12 -4 -19 -1 -8 3 -5 6 6 6 11 1
17 -2 13 -5z m248 -4 c-3 -5 -13 -10 -21 -10 -8 0 -14 5 -14 10 0 6 9 10 21
10 11 0 17 -4 14 -10z m-1261 -8 c-6 -4 -13 -14 -16 -23 -7 -18 -48 -33 -48
-18 0 23 27 49 50 49 14 0 20 -4 14 -8z m1366 -2 c0 -5 -5 -10 -11 -10 -5 0
-7 5 -4 10 3 6 8 10 11 10 2 0 4 -4 4 -10z m-1450 -30 c0 -5 -10 -15 -22 -21
l-23 -12 20 21 c23 24 25 25 25 12z m160 -8 c0 -4 -5 -13 -12 -20 -7 -7 -16
-12 -20 -12 -13 0 -9 28 5 33 19 8 27 8 27 -1z m60 -2 c0 -6 -13 -24 -30 -42
-35 -37 -37 -44 -10 -58 11 -6 20 -15 20 -20 0 -5 -9 -12 -20 -15 -11 -3 -20
-12 -20 -20 0 -7 -13 -20 -29 -28 -27 -14 -30 -13 -40 9 -10 23 1 35 14 14 10
-16 22 -12 40 16 12 19 14 29 6 37 -19 19 -12 38 27 77 44 44 42 43 42 30z
m840 0 c0 -5 -4 -10 -10 -10 -5 0 -10 5 -10 10 0 6 5 10 10 10 6 0 10 -4 10
-10z m-983 -31 c0 -29 -2 -30 -29 -25 -20 4 -28 1 -28 -8 0 -7 -6 -19 -14 -25
-11 -9 -12 -6 -8 15 4 21 2 25 -9 19 -8 -5 -5 1 5 13 11 12 21 20 23 18 3 -2
16 2 31 10 15 8 27 14 28 14 0 0 1 -14 1 -31z m1093 11 c0 -5 -2 -10 -4 -10
-2 0 -12 -3 -20 -6 -12 -5 -15 -2 -10 10 7 17 34 22 34 6z m50 -10 c0 -5 -5
-10 -11 -10 -5 0 -7 5 -4 10 3 6 8 10 11 10 2 0 4 -4 4 -10z m22 -15 c-2 -14
-8 -22 -13 -19 -5 3 -5 14 1 25 14 26 18 24 12 -6z m-988 -1 c18 -18 21 -44 5
-44 -6 0 -9 7 -6 14 4 9 -2 17 -14 21 -10 4 -17 11 -14 16 8 12 11 12 29 -7z
m-128 -16 c8 -12 -21 -38 -43 -38 -23 0 -14 19 13 26 19 5 22 9 12 15 -9 6 -9
9 -1 9 6 0 15 -5 19 -12z m1004 -3 c-7 -8 -18 -15 -24 -15 -6 0 -2 7 8 15 25
19 32 19 16 0z m-80 -10 c0 -8 -4 -15 -10 -15 -5 0 -7 7 -4 15 4 8 8 15 10 15
2 0 4 -7 4 -15z m-860 1 c0 -3 -4 -8 -10 -11 -5 -3 -10 -1 -10 4 0 6 5 11 10
11 6 0 10 -2 10 -4z m930 -25 c0 -9 -52 -22 -59 -15 -4 3 37 22 52 23 4 1 7
-3 7 -8z m-840 -12 c0 -5 6 -7 13 -3 7 5 6 1 -3 -10 -13 -17 -14 -17 -20 0 -6
17 -7 17 -13 -1 -4 -10 -10 -15 -14 -12 -7 8 15 37 28 37 5 0 9 -5 9 -11z
m-180 -9 c0 -5 -7 -10 -16 -10 -8 0 -12 5 -9 10 3 6 10 10 16 10 5 0 9 -4 9
-10z m45 0 c-3 -5 -12 -7 -20 -3 -21 7 -19 13 6 13 11 0 18 -4 14 -10z m72
-17 c-1 -16 -6 -31 -12 -35 -5 -4 -6 -10 -2 -14 3 -4 15 4 26 17 11 13 20 18
21 11 0 -8 8 -10 25 -6 16 4 25 2 25 -6 0 -6 -4 -9 -9 -5 -5 3 -12 1 -16 -5
-3 -5 -17 -10 -30 -10 -13 0 -28 -7 -33 -16 -5 -9 -15 -14 -21 -10 -6 4 -9 11
-6 16 3 5 -2 10 -11 12 -13 2 -11 8 10 33 14 17 26 33 26 38 0 4 2 7 4 7 3 0
4 -12 3 -27z m962 1 c3 -16 1 -17 -13 -5 -19 16 -21 34 -3 29 6 -3 14 -13 16
-24z m-59 -5 c0 -5 7 -9 15 -9 20 0 19 -36 -1 -44 -21 -8 -24 -8 -24 5 0 5 4
8 9 5 5 -3 12 1 15 10 3 8 2 12 -4 9 -6 -3 -10 -1 -10 5 0 7 -8 9 -20 5 -22
-7 -43 2 -35 14 6 11 55 11 55 0z m-1080 -9 c0 -5 8 -7 18 -3 13 4 14 3 6 -6
-6 -6 -18 -9 -27 -5 -18 7 -23 24 -7 24 6 0 10 -4 10 -10z m1220 -10 c0 -5 -7
-10 -16 -10 -8 0 -12 5 -9 10 3 6 10 10 16 10 5 0 9 -4 9 -10z m-1190 -24 c0
-3 -4 -8 -10 -11 -5 -3 -10 -1 -10 4 0 6 5 11 10 11 6 0 10 -2 10 -4z m1025
-7 c11 -17 -1 -21 -15 -4 -8 9 -8 15 -2 15 6 0 14 -5 17 -11z m-818 -26 c-9
-9 -20 -14 -24 -10 -3 4 2 14 13 21 25 19 33 10 11 -11z m733 -18 c-12 -15
-14 -15 -23 1 -6 11 -5 19 4 25 21 12 35 -7 19 -26z m170 14 c0 -5 -7 -9 -15
-9 -9 0 -12 6 -9 15 6 15 24 11 24 -6z m-1111 2 c0 -3 -4 -15 -8 -26 -7 -18
-8 -17 -13 6 -3 17 0 26 9 26 7 0 13 -3 12 -6z m50 6 c-2 -1 -14 -11 -26 -21
-13 -11 -23 -16 -23 -13 0 10 31 37 42 37 6 0 9 -1 7 -3z m951 -7 c0 -5 -6
-10 -14 -10 -8 0 -18 5 -21 10 -3 6 3 10 14 10 12 0 21 -4 21 -10z m240 0 c0
-5 -5 -10 -11 -10 -5 0 -7 5 -4 10 3 6 8 10 11 10 2 0 4 -4 4 -10z m-990 -20
c0 -5 -4 -10 -10 -10 -5 0 -10 5 -10 10 0 6 5 10 10 10 6 0 10 -4 10 -10z
m725 0 c9 -15 -15 -42 -31 -36 -7 3 -25 -5 -40 -16 l-27 -21 12 22 c7 12 20
25 29 28 9 4 21 12 25 20 10 16 23 17 32 3z m-905 -4 c0 -9 -30 -14 -35 -6 -4
6 3 10 14 10 12 0 21 -2 21 -4z m140 -4 c0 -14 -39 -46 -47 -39 -3 4 -2 7 4 7
6 0 13 9 16 20 5 19 27 29 27 12z m876 -9 c0 -10 -11 -26 -23 -36 -13 -10 -23
-26 -23 -35 0 -15 -2 -15 -10 -2 -7 11 -4 20 13 33 l22 18 -22 -6 c-32 -9 -29
11 5 28 37 20 40 20 38 0z m54 7 c0 -5 -5 -10 -11 -10 -5 0 -7 5 -4 10 3 6 8
10 11 10 2 0 4 -4 4 -10z m-1030 -10 c0 -5 0 -13 -1 -17 0 -3 6 -10 14 -15 24
-13 9 -48 -20 -48 -13 0 -21 4 -18 10 3 6 13 10 22 10 14 0 14 3 -2 20 -10 11
-28 20 -39 20 -20 1 -19 2 4 15 30 17 40 18 40 5z m45 0 c3 -5 -1 -10 -9 -10
-9 0 -16 5 -16 10 0 6 4 10 9 10 6 0 13 -4 16 -10z m1030 -10 c3 -5 1 -10 -4
-10 -6 0 -11 5 -11 10 0 6 2 10 4 10 3 0 8 -4 11 -10z m-933 -25 c3 -14 1 -22
-4 -19 -5 4 -22 10 -36 14 l-27 8 25 10 c36 15 37 15 42 -13z m43 5 c3 -5 2
-10 -4 -10 -5 0 -13 5 -16 10 -3 6 -2 10 4 10 5 0 13 -4 16 -10z m655 -9 c0
-6 -4 -13 -10 -16 -5 -3 -10 1 -10 9 0 9 5 16 10 16 6 0 10 -4 10 -9z m-900
-11 c0 -5 -2 -10 -4 -10 -3 0 -8 5 -11 10 -3 6 -1 10 4 10 6 0 11 -4 11 -10z
m940 6 c0 -2 -7 -7 -16 -10 -8 -3 -12 -2 -9 4 6 10 25 14 25 6z m-697 -47 c-6
-6 -19 -9 -29 -6 -17 3 -16 5 6 14 28 12 39 8 23 -8z m717 1 c0 -5 -4 -10 -10
-10 -5 0 -10 5 -10 10 0 6 5 10 10 10 6 0 10 -4 10 -10z m-915 -20 c3 -5 1
-10 -4 -10 -6 0 -11 5 -11 10 0 6 2 10 4 10 3 0 8 -4 11 -10z m65 6 c0 -3 -4
-8 -10 -11 -5 -3 -10 -1 -10 4 0 6 5 11 10 11 6 0 10 -2 10 -4z m40 -6 c0 -5
-5 -10 -11 -10 -5 0 -7 5 -4 10 3 6 8 10 11 10 2 0 4 -4 4 -10z m30 6 c0 -3
-4 -8 -10 -11 -5 -3 -10 -1 -10 4 0 6 5 11 10 11 6 0 10 -2 10 -4z m808 -27
c29 16 41 13 18 -4 -11 -8 -28 -15 -39 -15 -10 0 -21 -9 -24 -20 -3 -11 -9
-20 -14 -20 -5 0 -5 8 -2 17 5 12 2 15 -8 11 -8 -3 -26 0 -40 7 -21 12 -22 14
-7 20 10 4 23 5 30 3 7 -3 19 2 27 9 11 12 15 11 25 -3 10 -13 17 -14 34 -5z
m-788 -9 c-24 -15 -37 -11 -16 5 11 8 22 12 25 9 3 -3 -1 -9 -9 -14z m40 10
c0 -5 -4 -10 -10 -10 -5 0 -10 5 -10 10 0 6 5 10 10 10 6 0 10 -4 10 -10z
m-135 -19 c-3 -6 -11 -11 -17 -11 -6 0 -6 6 2 15 14 17 26 13 15 -4z m55 9 c0
-5 -7 -10 -16 -10 -8 0 -12 5 -9 10 3 6 10 10 16 10 5 0 9 -4 9 -10z m667 -12
c-2 -7 3 -18 12 -25 9 -6 12 -15 7 -20 -5 -4 -11 -2 -13 5 -3 6 -12 12 -20 12
-12 0 -13 3 -4 13 6 8 8 17 4 20 -3 4 -1 7 6 7 7 0 11 -6 8 -12z m-551 -50
c-4 -24 -1 -28 14 -23 11 3 20 0 24 -10 4 -12 -3 -15 -35 -15 -32 0 -41 -4
-51 -25 -13 -30 -23 -32 -25 -6 -1 10 9 24 23 31 13 8 24 21 24 30 0 9 6 22
13 30 9 11 8 11 -7 0 -18 -14 -19 -13 -13 3 4 10 7 23 7 29 0 6 6 5 15 -2 10
-8 14 -24 11 -42z m-83 22 c-3 -11 -7 -20 -9 -20 -2 0 -4 9 -4 20 0 11 4 20 9
20 5 0 7 -9 4 -20z m-34 -14 c8 -10 9 -16 1 -21 -13 -8 -30 3 -30 21 0 18 14
18 29 0z m-46 -3 c3 -5 -1 -14 -9 -21 -12 -11 -14 -9 -14 8 0 20 14 27 23 13z
m787 -25 c0 -6 -8 -7 -17 -3 -15 5 -16 4 -5 -6 17 -18 15 -30 -3 -23 -8 4 -15
1 -15 -5 0 -6 -4 -11 -10 -11 -5 0 -10 7 -10 15 0 8 5 15 11 15 5 0 7 4 4 10
-10 16 18 40 33 28 6 -6 12 -15 12 -20z m130 6 c0 -8 -5 -12 -10 -9 -6 4 -8
11 -5 16 9 14 15 11 15 -7z m-795 -4 c-3 -5 -14 -10 -23 -10 -15 0 -15 2 -2
10 20 13 33 13 25 0z m691 -6 c-3 -9 -6 -18 -6 -20 0 -2 -5 -4 -11 -4 -8 0 -9
4 0 13 6 8 8 17 4 20 -3 4 -1 7 6 7 8 0 11 -6 7 -16z m-804 -16 c-7 -7 -12 -8
-12 -2 0 14 12 26 19 19 2 -3 -1 -11 -7 -17z m71 -23 c-5 -15 -53 -21 -53 -7
0 9 42 30 52 25 4 -2 5 -10 1 -18z m803 13 c5 -7 2 -9 -8 -5 -11 4 -18 -2 -22
-18 -3 -12 -13 -25 -21 -29 -24 -9 -18 31 7 48 27 19 35 20 44 4z m-163 -45
c-15 -12 -16 -15 -3 -23 11 -7 11 -10 2 -10 -7 0 -11 -4 -8 -8 9 -14 -33 -7
-47 8 -10 12 -9 12 6 1 18 -14 19 -12 19 36 0 30 1 31 25 20 23 -10 24 -12 6
-24z m-569 21 c9 -3 16 -10 16 -15 0 -4 -7 -6 -15 -3 -8 4 -15 1 -15 -5 0 -6
-4 -11 -9 -11 -5 0 -7 9 -4 20 6 22 6 22 27 14z m52 -31 c-11 -11 -19 6 -11
24 8 17 8 17 12 0 3 -10 2 -21 -1 -24z m578 28 c3 -5 -1 -14 -9 -21 -8 -7 -15
-19 -15 -27 0 -11 4 -13 13 -5 8 7 16 6 25 -4 11 -12 9 -14 -7 -14 -37 0 -51
10 -41 30 6 10 7 26 4 34 -7 17 20 23 30 7z m-781 -21 c-3 -11 -9 -20 -14 -20
-11 0 -11 3 -3 24 9 23 23 20 17 -4z m40 -7 c-31 -21 -29 -37 2 -29 18 5 25 2
25 -8 0 -15 -36 -16 -58 -2 -16 10 15 56 37 55 12 0 11 -4 -6 -16z m87 -33 c0
-5 -4 -10 -10 -10 -5 0 -10 5 -10 10 0 6 5 10 10 10 6 0 10 -4 10 -10z m85 0
c3 -5 -1 -20 -9 -32 l-16 -22 0 26 c0 14 -6 29 -12 31 -7 3 -3 6 9 6 12 1 25
-3 28 -9z m-45 -19 c0 -4 -13 -24 -30 -42 -16 -19 -30 -38 -30 -44 0 -5 -5 -2
-11 8 -6 10 -9 20 -7 21 30 21 59 46 54 46 -4 0 -4 5 -1 10 8 12 25 13 25 1z
m-150 -11 c0 -5 -4 -10 -10 -10 -5 0 -10 5 -10 10 0 6 5 10 10 10 6 0 10 -4
10 -10z m635 0 c-3 -5 -12 -10 -19 -10 -23 0 -36 -21 -21 -36 7 -8 18 -14 24
-14 6 0 11 -5 11 -10 0 -7 -6 -7 -19 0 -11 5 -26 8 -33 5 -10 -4 -14 2 -14 22
1 23 7 30 36 39 19 7 36 12 38 13 2 1 0 -3 -3 -9z m-583 -30 c3 -17 1 -33 -4
-36 -4 -3 -8 1 -8 8 0 7 -3 23 -6 36 -4 12 -2 22 4 22 5 0 12 -14 14 -30z m48
26 c0 -3 -4 -8 -10 -11 -5 -3 -10 -1 -10 4 0 6 5 11 10 11 6 0 10 -2 10 -4z
m331 -19 c-13 -13 -26 -3 -16 12 3 6 11 8 17 5 6 -4 6 -10 -1 -17z m266 11
c-1 -34 4 -49 14 -42 8 4 8 0 0 -15 -13 -24 -33 -29 -25 -6 4 8 1 15 -6 15
-10 0 -10 3 -1 14 14 17 0 29 -23 20 -9 -3 -16 -1 -16 4 0 10 19 18 46 21 7 0
12 -5 11 -11z m-275 -26 c29 -12 53 -40 25 -29 -10 4 -20 0 -25 -10 -7 -12
-12 -9 -22 18 -6 19 -14 28 -17 22 -2 -7 -11 -13 -19 -13 -8 0 -14 -4 -14 -9
0 -13 -53 -7 -58 7 -3 10 4 12 28 9 22 -4 30 -2 27 6 -6 15 38 14 75 -1z
m-241 -15 c-10 -9 -11 -8 -5 6 3 10 9 15 12 12 3 -3 0 -11 -7 -18z m341 -19
c3 -7 4 -26 4 -42 -1 -39 -23 -45 -23 -6 0 16 5 30 10 30 5 0 4 7 -3 15 -7 9
-8 15 -2 15 5 0 12 -6 14 -12z m-397 -21 c-4 -15 -1 -28 9 -36 9 -8 16 -19 16
-25 0 -6 -4 -5 -9 3 -6 9 -11 10 -15 2 -4 -6 -12 -11 -19 -11 -8 0 -8 3 0 11
9 9 9 18 0 36 -9 19 -8 26 4 34 20 12 20 12 14 -14z m45 16 c0 -5 -7 -17 -15
-27 -15 -20 -20 -10 -9 18 6 16 24 22 24 9z m155 -62 c-15 -15 -17 -15 -28 0
-7 9 -19 14 -27 11 -12 -4 -12 -2 -3 8 10 10 15 11 27 1 10 -8 16 -9 21 -1 3
5 1 10 -4 10 -6 0 -11 5 -11 11 0 5 4 8 9 4 5 -3 13 0 18 7 5 9 9 6 11 -11 2
-13 -4 -31 -13 -40z m145 44 c-7 -8 -18 -15 -24 -15 -6 0 -2 7 8 15 25 19 32
19 16 0z m147 4 c7 -7 13 -7 17 0 8 12 36 4 36 -11 0 -5 -9 -6 -21 -3 -16 5
-22 2 -26 -15 -6 -22 -6 -21 -19 6 -8 18 -13 23 -13 12 -2 -28 -21 -31 -21 -4
0 28 26 36 47 15z m-62 -9 c3 -5 1 -10 -4 -10 -6 0 -11 5 -11 10 0 6 2 10 4
10 3 0 8 -4 11 -10z m-381 -22 c-5 -8 -2 -9 11 -4 11 4 22 2 27 -6 13 -21 9
-38 -9 -38 -15 0 -16 2 -3 10 12 8 11 10 -7 10 -24 0 -38 14 -28 30 3 6 8 10
11 10 3 0 2 -5 -2 -12z m284 -23 c-6 -14 -15 -25 -20 -25 -5 0 -6 6 -1 13 4 6
8 15 9 20 3 15 4 17 14 17 6 0 5 -10 -2 -25z m-59 6 c7 -5 10 -14 7 -20 -10
-16 -29 -13 -23 3 4 10 0 14 -14 13 -10 -1 -19 -7 -19 -14 0 -7 -4 -13 -10
-13 -14 0 -13 13 2 28 14 14 37 15 57 3z m-139 -31 c0 -5 -7 -10 -15 -10 -8 0
-15 5 -15 10 0 6 7 10 15 10 8 0 15 -4 15 -10z m60 0 c0 -5 -4 -10 -10 -10 -5
0 -10 5 -10 10 0 6 5 10 10 10 6 0 10 -4 10 -10z m190 0 c14 -9 12 -12 -6 -9
-4 0 -10 -3 -13 -9 -9 -14 -54 -22 -70 -13 -9 6 -2 11 23 15 20 4 36 11 36 16
0 13 11 12 30 0z m-240 -30 c0 -5 -5 -10 -11 -10 -5 0 -7 5 -4 10 3 6 8 10 11
10 2 0 4 -4 4 -10z m-28 -25 c0 -5 -15 -13 -35 -16 -26 -4 -34 -2 -30 7 8 22
63 29 65 9z m198 -5 c0 -5 -6 -7 -14 -4 -9 3 -19 -4 -26 -17 -10 -17 -14 -19
-21 -8 -4 8 -3 19 3 26 12 15 58 18 58 3z m-140 -20 c0 -5 -8 -10 -17 -10 -10
0 -28 -3 -40 -6 -13 -4 -23 -2 -23 4 0 11 21 19 58 21 12 0 22 -3 22 -9z"/>
<path d="M1990 1618 c0 -6 -10 -22 -22 -35 -21 -22 -16 -28 17 -24 6 1 1 -6
-10 -15 -11 -8 -19 -20 -17 -25 1 -5 -2 -9 -7 -9 -14 0 -19 -31 -10 -57 5 -13
4 -25 -1 -28 -5 -3 -8 -31 -5 -62 3 -30 2 -60 -2 -65 -8 -14 -10 -87 -1 -82 4
2 9 -5 13 -16 3 -11 14 -21 23 -21 9 -1 24 -2 32 -3 22 -2 40 34 29 61 -5 13
-5 33 0 45 4 12 5 36 1 53 -3 16 -6 49 -6 73 1 23 -2 42 -6 42 -5 0 -8 -5 -8
-12 0 -6 -3 -8 -6 -5 -4 4 -1 14 7 23 19 23 21 47 3 40 -12 -5 -12 -2 -3 15 6
11 8 27 5 34 -3 9 0 12 10 8 7 -3 14 0 14 6 0 6 -7 11 -15 11 -8 0 -15 6 -15
13 0 8 -4 7 -10 -3 -8 -13 -10 -13 -10 2 0 9 5 20 10 23 6 3 10 10 10 16 0 5
-4 9 -10 9 -5 0 -10 -5 -10 -12z m1 -101 c-10 -9 -11 -8 -5 6 3 10 9 15 12 12
3 -3 0 -11 -7 -18z m24 -135 c3 -9 0 -12 -9 -9 -10 4 -13 1 -9 -9 8 -20 0 -17
-26 10 l-23 25 30 -1 c17 -1 34 -8 37 -16z m-45 -23 c0 -5 -4 -9 -10 -9 -5 0
-10 7 -10 16 0 8 5 12 10 9 6 -3 10 -10 10 -16z m0 -29 c0 -5 -4 -10 -10 -10
-5 0 -10 5 -10 10 0 6 5 10 10 10 6 0 10 -4 10 -10z m5 -40 c3 -5 1 -10 -4
-10 -6 0 -11 5 -11 10 0 6 2 10 4 10 3 0 8 -4 11 -10z"/>
<path d="M1922 1187 c-7 -8 -7 -18 -2 -27 14 -23 12 -40 -6 -40 -8 0 -13 -4
-9 -10 3 -5 12 -7 20 -4 8 4 18 -1 21 -10 3 -9 13 -16 21 -16 13 0 13 -3 2
-16 -12 -14 -14 -14 -26 2 -12 16 -18 12 -14 -10 1 -4 -3 -13 -8 -20 -14 -16
3 -40 24 -33 9 4 14 3 10 -3 -3 -6 -16 -10 -28 -10 -19 -1 -20 -2 -5 -10 13
-8 15 -17 8 -39 -4 -16 -6 -31 -4 -34 3 -2 0 -16 -5 -31 -7 -17 -7 -26 -1 -26
6 0 10 9 10 20 0 21 15 27 25 10 3 -5 2 -10 -3 -10 -5 0 -12 -9 -15 -21 -5
-20 -5 -20 15 -2 20 17 21 17 15 1 -10 -28 7 -21 31 12 22 30 22 30 2 42 -25
16 -25 26 1 54 11 12 22 28 23 35 2 8 6 22 10 31 8 18 -16 53 -28 40 -4 -3 -3
5 2 18 6 15 6 36 0 52 -12 32 -33 38 -23 7 5 -15 4 -19 -4 -15 -6 4 -11 14
-11 23 0 9 -6 13 -14 10 -15 -6 -30 19 -20 34 8 14 -2 11 -14 -4z m88 -171 c0
-3 -4 -8 -10 -11 -5 -3 -10 -1 -10 4 0 6 5 11 10 11 6 0 10 -2 10 -4z m-23
-48 c-3 -8 -6 -5 -6 6 -1 11 2 17 5 13 3 -3 4 -12 1 -19z m3 -88 c0 -5 -4 -10
-10 -10 -5 0 -10 5 -10 10 0 6 5 10 10 10 6 0 10 -4 10 -10z"/>
<path d="M2010 1149 c0 -5 5 -7 10 -4 6 3 10 8 10 11 0 2 -4 4 -10 4 -5 0 -10
-5 -10 -11z"/>
</g>
</svg>
